<svg width="353" height="353" viewBox="0 0 353 353" fill="none" xmlns="http://www.w3.org/2000/svg">
<path fill-rule="evenodd" clip-rule="evenodd" d="M105.042 223.531C99.438 226.38 93.1407 227.979 86.485 227.979C63.0902 227.979 44.125 208.224 44.125 183.854C44.125 159.485 63.0902 139.729 86.485 139.729C101.375 139.729 114.471 147.732 122.025 159.835C110.874 173.624 104.135 191.56 104.135 211.17C104.135 215.375 104.445 219.504 105.042 223.531Z" fill="#198754"/>
<path fill-rule="evenodd" clip-rule="evenodd" d="M231.564 156.406C240.203 144.645 245.335 129.942 245.335 113.99C245.335 75.4044 215.307 44.125 178.265 44.125C141.223 44.125 111.195 75.4044 111.195 113.99C111.195 129.942 116.328 144.645 124.966 156.406C138.445 141.588 157.343 132.375 178.265 132.375C199.187 132.375 218.085 141.588 231.564 156.406Z" fill="#198754"/>
<path fill-rule="evenodd" clip-rule="evenodd" d="M232.539 157.498C244.859 171.567 252.395 190.433 252.395 211.17C252.395 215.898 252.003 220.529 251.252 225.028C255.988 226.934 261.134 227.979 266.515 227.979C289.91 227.979 308.875 208.224 308.875 183.854C308.875 159.485 289.91 139.729 266.515 139.729C252.605 139.729 240.261 146.713 232.539 157.498Z" fill="#198754"/>
<path fill-rule="evenodd" clip-rule="evenodd" d="M202.975 299.361C207.479 295.69 212.262 291.488 217.001 286.812H235.335C240.858 286.812 245.335 291.29 245.335 296.812V303.875C245.335 306.636 243.096 308.875 240.335 308.875H202.975V299.361Z" fill="#AE7560"/>
<path fill-rule="evenodd" clip-rule="evenodd" d="M140.308 286.812C144.774 291.22 149.28 295.206 153.555 298.723V308.875H118.549C116.356 308.875 115.26 308.875 114.388 308.537C113.077 308.029 112.041 306.993 111.533 305.682C111.195 304.81 111.195 303.714 111.195 301.521C111.195 297.135 111.195 294.942 111.871 293.198C112.887 290.577 114.96 288.505 117.581 287.488C119.325 286.812 121.518 286.812 125.903 286.812H140.308Z" fill="#AE7560"/>
<path fill-rule="evenodd" clip-rule="evenodd" d="M240.573 225.374L240.505 225.737L240.46 226.104C237.719 248.294 222.188 268.624 205.427 284.231C197.261 291.837 189.252 297.905 183.278 302.072C181.542 303.282 179.985 304.327 178.654 305.198C177.77 304.619 176.786 303.964 175.716 303.233C170.716 299.823 163.893 294.825 156.633 288.507C141.837 275.631 126.437 258.307 119.795 238.764L119.712 238.522L119.62 238.283C116.47 230.172 114.725 221.258 114.725 211.876C114.725 174.061 143.173 143.406 178.265 143.406C213.357 143.406 241.805 174.061 241.805 211.876C241.805 216.507 241.38 221.019 240.573 225.374Z" fill="#AE7560"/>
<path d="M206.505 211.133C206.505 194.509 193.862 181.032 178.265 181.032C162.669 181.032 150.025 194.509 150.025 211.133C150.025 227.757 162.669 241.234 178.265 241.234C193.862 241.234 206.505 227.757 206.505 211.133Z" fill="white"/>
</svg>
