<svg width="128" height="128" viewBox="0 0 128 128" fill="none" xmlns="http://www.w3.org/2000/svg">
<path fill-rule="evenodd" clip-rule="evenodd" d="M38.0889 81.0537C36.0568 82.0868 33.7734 82.6666 31.36 82.6666C22.8769 82.6666 16 75.5032 16 66.6666C16 57.8301 22.8769 50.6666 31.36 50.6666C36.7594 50.6666 41.5081 53.5687 44.247 57.957C40.2037 62.9571 37.76 69.4609 37.76 76.5714C37.76 78.0964 37.8724 79.5934 38.0889 81.0537Z" fill="#198754"/>
<path fill-rule="evenodd" clip-rule="evenodd" d="M83.9665 56.7137C87.0989 52.4492 88.96 47.1177 88.96 41.3333C88.96 27.3421 78.0716 16 64.64 16C51.2084 16 40.32 27.3421 40.32 41.3333C40.32 47.1177 42.1811 52.4492 45.3135 56.7137C50.2009 51.3407 57.0534 48 64.64 48C72.2266 48 79.0791 51.3407 83.9665 56.7137Z" fill="#198754"/>
<path fill-rule="evenodd" clip-rule="evenodd" d="M84.3199 57.1097C88.7873 62.2113 91.52 69.0521 91.52 76.5714C91.52 78.2859 91.378 79.9652 91.1056 81.5966C92.8227 82.2877 94.6889 82.6666 96.64 82.6666C105.123 82.6666 112 75.5032 112 66.6666C112 57.8301 105.123 50.6666 96.64 50.6666C91.5962 50.6666 87.1203 53.199 84.3199 57.1097Z" fill="#198754"/>
<path fill-rule="evenodd" clip-rule="evenodd" d="M73.6 108.55C75.2333 107.219 76.9676 105.696 78.6861 104H84.96C87.1691 104 88.96 105.791 88.96 108V110C88.96 111.105 88.0645 112 86.96 112H73.6V108.55Z" fill="#AE7560"/>
<path fill-rule="evenodd" clip-rule="evenodd" d="M50.8764 104C52.4961 105.598 54.1299 107.044 55.68 108.319V112H42.32C41.2154 112 40.32 111.105 40.32 110V108C40.32 105.791 42.1109 104 44.32 104H50.8764Z" fill="#AE7560"/>
<path fill-rule="evenodd" clip-rule="evenodd" d="M87.2331 81.7221L87.2087 81.8537L87.1923 81.9867C86.1985 90.0328 80.5667 97.4046 74.4893 103.064C71.528 105.822 68.6241 108.022 66.4576 109.533C65.8282 109.972 65.2636 110.351 64.7812 110.667C64.4607 110.457 64.1038 110.219 63.7156 109.954C61.9027 108.718 59.4286 106.906 56.7961 104.615C51.4309 99.9456 45.8469 93.6636 43.4383 86.5773L43.4084 86.4894L43.3749 86.4031C42.2328 83.4619 41.6 80.2296 41.6 76.8276C41.6 63.1157 51.9153 52 64.64 52C77.3646 52 87.68 63.1157 87.68 76.8276C87.68 78.5068 87.5258 80.143 87.2331 81.7221Z" fill="#AE7560"/>
<path d="M74.88 76.5581C74.88 70.5301 70.2954 65.6434 64.64 65.6434C58.9846 65.6434 54.4 70.5301 54.4 76.5581C54.4 82.5861 58.9846 87.4728 64.64 87.4728C70.2954 87.4728 74.88 82.5861 74.88 76.5581Z" fill="white"/>
</svg>
