<svg width="353" height="353" viewBox="0 0 353 353" fill="none" xmlns="http://www.w3.org/2000/svg">
<rect width="353" height="353" rx="20" fill="white"/>
<path d="M154 141C160.116 141 165.163 145.576 165.905 151.491C160.147 154.214 155.463 158.99 152.705 164.93C146.687 164.284 142 159.19 142 153C142 146.373 147.373 141 154 141Z" fill="#249D65"/>
<path d="M177 123C186.941 123 195 131.059 195 141C195 145.527 193.327 149.663 190.567 152.826C186.581 150.394 181.946 149 177 149C172.054 149 167.418 150.394 163.432 152.826C160.672 149.663 159 145.527 159 141C159 131.059 167.059 123 177 123Z" fill="#249D65"/>
<path d="M200 141C206.628 141 212 146.373 212 153C212 159.19 207.312 164.286 201.293 164.931C198.536 158.991 193.853 154.213 188.094 151.49C188.836 145.575 193.884 141 200 141Z" fill="#249D65"/>
<path d="M197 205C199.209 205 201 206.791 201 209V211C201 212.105 200.105 213 199 213H185V209.655C186.721 208.322 188.589 206.761 190.456 205H197Z" fill="#915944"/>
<path d="M163.826 205C165.591 206.665 167.358 208.149 169 209.434V213H155.667C155.047 213 154.737 213 154.482 212.932C153.792 212.747 153.253 212.208 153.068 211.518C153 211.263 153 210.953 153 210.333C153 209.093 153 208.473 153.137 207.965C153.507 206.584 154.584 205.507 155.965 205.137C156.473 205 157.093 205 158.333 205H163.826Z" fill="#915944"/>
<path fill-rule="evenodd" clip-rule="evenodd" d="M199.554 182.384L199.53 182.514L199.513 182.646C198.521 190.601 192.899 197.889 186.832 203.484C183.876 206.21 180.977 208.385 178.814 209.879C178.186 210.313 177.623 210.688 177.141 211C176.821 210.793 176.465 210.558 176.077 210.296C174.267 209.073 171.798 207.282 169.17 205.017C163.814 200.401 158.24 194.19 155.835 187.184L155.805 187.097L155.772 187.012C154.632 184.104 154 180.909 154 177.545C154 163.989 164.297 153 177 153C189.703 153 200 163.989 200 177.545C200 179.206 199.846 180.823 199.554 182.384Z" fill="#915944"/>
<path d="M187 179C187 173.477 182.523 169 177 169C171.477 169 167 173.477 167 179C167 184.523 171.477 189 177 189C182.523 189 187 184.523 187 179Z" fill="white"/>
<path d="M80.9824 233.47V248.494H79.123V233.47H80.9824ZM72.8975 234.565C75.1553 234.565 76.7988 236.624 76.8154 239.861C76.7988 243.132 75.1553 245.174 72.8975 245.174C70.623 245.174 68.9795 243.132 68.9795 239.861C68.9795 236.624 70.623 234.565 72.8975 234.565ZM72.8975 236.226C71.6191 236.226 70.7559 237.57 70.7559 239.861C70.7559 242.169 71.6191 243.514 72.8975 243.514C74.1592 243.514 75.0225 242.169 75.0225 239.861C75.0225 237.57 74.1592 236.226 72.8975 236.226ZM91.126 234.881V244.825H83.9873V234.881H91.126ZM85.8135 236.325V243.348H89.333V236.325H85.8135ZM95.6748 233.47V248.494H93.8154V233.47H95.6748ZM103.544 237.736C103.544 240.193 104.988 242.783 107.412 243.796L106.399 245.257C104.623 244.493 103.328 242.916 102.647 241.007C101.95 243.065 100.639 244.792 98.8789 245.622L97.8164 244.178C100.19 243.082 101.668 240.293 101.668 237.736V236.475H98.3643V234.947H106.831V236.475H103.544V237.736ZM110.367 233.47V248.478H108.508V233.47H110.367ZM126.271 240.276V241.671H112.559V240.276H126.271ZM124.611 242.567V245.987H116.012V247.033H125.06V248.312H114.169V244.792H122.785V243.862H114.152V242.567H124.611ZM124.578 233.802V237.188H116.128V238.168H124.844V239.43H114.302V235.993H122.735V235.08H114.252V233.802H124.578ZM134.904 233.702V234.881H141.379V233.702H143.205V238.699H133.078V233.702H134.904ZM134.904 237.321H141.379V236.226H134.904V237.321ZM144.981 239.629V241.14H139.038V242.252H143.271V245.888H134.738V246.934H143.687V248.345H132.929V244.593H141.462V243.613H132.912V242.252H137.195V241.14H131.302V239.629H144.981ZM158.562 233.47V248.494H156.719V240.509H154.146V238.998H156.719V233.47H158.562ZM153.282 234.781V240.276H148.368V243.431C150.593 243.422 152.394 243.348 154.411 242.982L154.561 244.493C152.319 244.892 150.327 244.975 147.737 244.975H146.542V238.782H151.473V236.275H146.492V234.781H153.282ZM167.51 234.316C170.73 234.316 173.104 235.927 173.104 238.367C173.104 240.617 171.17 242.119 168.423 242.385V245.141H174.399V246.651H160.687V245.141H166.597V242.385C163.866 242.119 161.932 240.617 161.948 238.367C161.932 235.927 164.306 234.316 167.51 234.316ZM167.51 235.811C165.318 235.794 163.741 236.79 163.758 238.367C163.741 239.994 165.318 240.957 167.51 240.957C169.734 240.957 171.295 239.994 171.295 238.367C171.295 236.79 169.734 235.794 167.51 235.811ZM181.04 237.736C181.04 240.193 182.484 242.783 184.908 243.796L183.896 245.257C182.119 244.493 180.824 242.916 180.144 241.007C179.446 243.065 178.135 244.792 176.375 245.622L175.312 244.178C177.687 243.082 179.164 240.293 179.164 237.736V236.475H175.86V234.947H184.327V236.475H181.04V237.736ZM187.863 233.47V248.478H186.004V233.47H187.863ZM206.042 234.084V239.214H201.858V240.691H207.785V242.186H194.105V240.691H200.032V239.214H195.832V234.084H206.042ZM197.625 235.528V237.753H204.216V235.528H197.625ZM201.858 243.331C201.858 245.058 203.701 246.552 206.806 246.95L206.125 248.378C203.701 248.029 201.858 247.033 200.945 245.589C199.999 247.033 198.148 248.029 195.732 248.378L195.068 246.95C198.156 246.552 199.982 245.058 199.999 243.331V242.949H201.858V243.331ZM221.631 233.486V242.733H219.871V238.932H218.443V242.551H216.717V233.702H218.443V237.421H219.871V233.486H221.631ZM216.186 235.014V236.475H208.715V235.014H211.554V233.553H213.38V235.014H216.186ZM212.467 237.039C214.376 237.056 215.721 238.085 215.737 239.646C215.721 241.189 214.376 242.252 212.467 242.252C210.591 242.252 209.229 241.189 209.246 239.646C209.229 238.085 210.591 237.056 212.467 237.039ZM212.467 238.384C211.537 238.384 210.89 238.832 210.89 239.646C210.89 240.426 211.521 240.907 212.467 240.907C213.413 240.907 214.061 240.426 214.061 239.646C214.061 238.832 213.413 238.384 212.467 238.384ZM214.393 243.563C214.393 244.726 214.949 245.921 216.202 246.668C217.472 245.871 218.062 244.609 218.078 243.563V243.198H219.904V243.563C219.904 244.991 220.851 246.369 222.81 246.9L221.946 248.295C220.477 247.83 219.498 246.9 218.975 245.738C218.501 246.884 217.622 247.905 216.235 248.428C214.824 247.93 213.936 246.967 213.463 245.821C212.915 246.917 211.936 247.822 210.541 248.295L209.678 246.9C211.604 246.319 212.566 244.908 212.566 243.563V243.198H214.393V243.563ZM227.591 234.565C229.625 234.565 231.127 236.259 231.393 238.998H234.248V233.47H236.074V248.494H234.248V240.492H231.409C231.21 243.389 229.683 245.174 227.591 245.174C225.333 245.174 223.739 243.132 223.739 239.861C223.739 236.624 225.333 234.565 227.591 234.565ZM227.591 236.226C226.346 236.226 225.499 237.57 225.516 239.861C225.499 242.169 226.346 243.514 227.591 243.514C228.836 243.514 229.666 242.169 229.683 239.861C229.666 237.57 228.836 236.226 227.591 236.226ZM251.896 245.141V246.651H238.183V245.141H241.354V241.339C240.158 240.658 239.436 239.587 239.444 238.251C239.428 235.86 241.785 234.283 245.006 234.283C248.243 234.283 250.601 235.86 250.601 238.251C250.601 239.562 249.903 240.617 248.741 241.306V245.141H251.896ZM245.006 235.744C242.765 235.744 241.237 236.69 241.254 238.251C241.237 239.795 242.765 240.758 245.006 240.758C247.247 240.758 248.791 239.795 248.791 238.251C248.791 236.69 247.247 235.744 245.006 235.744ZM243.18 245.141H246.865V242.003C246.292 242.136 245.67 242.202 245.006 242.202C244.358 242.202 243.744 242.136 243.18 242.02V245.141ZM270.572 238.417V239.911H267.152V246.187H265.31V239.911H262.122V246.187H260.246V239.911H256.942V238.417H270.572ZM285.265 238.417V239.911H281.845V246.187H280.002V239.911H276.814V246.187H274.938V239.911H271.635V238.417H285.265Z" fill="#212529"/>
</svg>
