<svg width="32" height="32" viewBox="0 0 32 32" fill="none" xmlns="http://www.w3.org/2000/svg">
<path d="M15.3334 27.9332V26.6519C12.5556 26.3915 10.2622 25.3568 8.45336 23.5479C6.64358 21.7381 5.60891 19.4443 5.34936 16.6666H4.06669C3.87825 16.6666 3.72002 16.6026 3.59202 16.4746C3.46402 16.3466 3.40002 16.1879 3.40002 15.9986C3.40002 15.8092 3.46402 15.651 3.59202 15.5239C3.72002 15.3968 3.87825 15.3332 4.06669 15.3332H5.34936C5.60891 12.5555 6.64358 10.2621 8.45336 8.45324C10.2631 6.64435 12.5565 5.60968 15.3334 5.34924V4.06657C15.3334 3.87812 15.3974 3.7199 15.5254 3.5919C15.6534 3.4639 15.812 3.3999 16.0014 3.3999C16.1907 3.3999 16.3489 3.4639 16.476 3.5919C16.6031 3.7199 16.6667 3.87812 16.6667 4.06657V5.34924C19.4445 5.60879 21.7378 6.64346 23.5467 8.45324C25.3556 10.263 26.3907 12.5563 26.652 15.3332H27.9334C28.1227 15.3332 28.2809 15.3972 28.408 15.5252C28.5351 15.6532 28.5991 15.8119 28.6 16.0012C28.6009 16.1906 28.5369 16.3488 28.408 16.4759C28.2791 16.603 28.1209 16.6666 27.9334 16.6666H26.652C26.3916 19.4443 25.3569 21.7377 23.548 23.5466C21.7382 25.3563 19.4445 26.3915 16.6667 26.6519V27.9332C16.6667 28.1226 16.6027 28.2808 16.4747 28.4079C16.3467 28.535 16.188 28.599 15.9987 28.5999C15.8094 28.6008 15.6511 28.5368 15.524 28.4079C15.3969 28.279 15.3334 28.1208 15.3334 27.9332ZM16 25.3332C18.5778 25.3332 20.7778 24.4221 22.6 22.5999C24.4222 20.7777 25.3334 18.5777 25.3334 15.9999C25.3334 13.4221 24.4222 11.2221 22.6 9.3999C20.7778 7.57768 18.5778 6.66657 16 6.66657C13.4222 6.66657 11.2222 7.57768 9.40002 9.3999C7.5778 11.2221 6.66669 13.4221 6.66669 15.9999C6.66669 18.5777 7.5778 20.7777 9.40002 22.5999C11.2222 24.4221 13.4222 25.3332 16 25.3332ZM16 19.9999C14.9005 19.9999 13.9587 19.6083 13.1747 18.8252C12.3907 18.0421 11.9991 17.1003 12 15.9999C12.0009 14.8995 12.3925 13.9577 13.1747 13.1746C13.9569 12.3915 14.8987 11.9999 16 11.9999C17.1014 11.9999 18.0431 12.3915 18.8254 13.1746C19.6076 13.9577 19.9991 14.8995 20 15.9999C20.0009 17.1003 19.6094 18.0421 18.8254 18.8252C18.0414 19.6083 17.0996 19.9999 16 19.9999Z" fill="#198754"/>
</svg>
